# xmcd CD database file
#
# Track frame offsets:
#	182
#	10667
#	24470
#	39395
#	50402
#	62492
#	78467
#	94675
#	106812
#	120747
#	136082
#	153172
#	168030
#	183620
#	200867
#	215415
#	229370
#	244822
#	259442
#	273692
#	287715
#	308267
#	321767
#	335195
#
# Disc length: 4669 seconds
#
# Revision: 6
# Processed by: cddbd v1.5.2PL0 Copyright (c) Steve Scherf et al.
# Submitted via: CDex 1.51
#
DISCID=53123b18
DTITLE=Louis Armstrong - The Ultimate Collection
DYEAR=1994
DGENRE=Jazz
TTITLE0=What A Wonderful World
TTITLE1=C'est Si Bon (It's So Good)
TTITLE2=Blueberry Hill
TTITLE3=Hello Dolly
TTITLE4=Jeepers Creepers
TTITLE5=When The Saints Go Marching In
TTITLE6=Mack The Knife
TTITLE7=St Louis Blues
TTITLE8=Dream A Little Dream Of Me
TTITLE9=Pennies From Heaven
TTITLE10=Ain't Misbehavin'
TTITLE11=Tiger Rag
TTITLE12=Sugar
TTITLE13=(Up A) Lazy River
TTITLE14=Only You (And You Alone)
TTITLE15=Georgia On My Mind
TTITLE16=Basin Street Blues
TTITLE17=Someday You'll Be Sorry
TTITLE18=The Faithful Hassar
TTITLE19=Rockin' Chair
TTITLE20=Medley: When You're Smiling/St James Infimary/Dinah
TTITLE21=Do You Know What It Means To Miss New Orleans
TTITLE22=Moon River
TTITLE23=What A Wonderful World [alternative version]
EXTD=YEAR: 1994
EXTT0=
EXTT1=
EXTT2=
EXTT3=
EXTT4=
EXTT5=
EXTT6=
EXTT7=
EXTT8=
EXTT9=
EXTT10=
EXTT11=
EXTT12=
EXTT13=
EXTT14=
EXTT15=
EXTT16=
EXTT17=
EXTT18=
EXTT19=
EXTT20=When Your Smiling\nSt James Infirmary\n
EXTT21=
EXTT22=
EXTT23=
PLAYORDER=
